# xmcd CD database file
#
# Track frame offsets:
#	187
#	18302
#	35342
#	57720
#	76950
#	92242
#	108925
#	125217
#	141797
#	159857
#
# Disc length: 2390 seconds
#
# Revision: 0
# Processed by: cddbd v1.5.1PL0 Copyright (c) Steve Scherf et al.
# Submitted via: CDex 1.51
#
DISCID=8009540a
DTITLE=Roby Duke - Not The Same
DYEAR=1982
DGENRE=Pop
TTITLE0=Love Is Here To Stay
TTITLE1=Time To Stand
TTITLE2=Seasons Of Change
TTITLE3=Carpenter (Do What You Got To Do)
TTITLE4=Feel It Comin'
TTITLE5=O Magnify The Load
TTITLE6=Can't Stop Runnin'
TTITLE7=Rested In Your Love
TTITLE8=Not The Same
TTITLE9=Promised Land
EXTD=YEAR: 1982
EXTT0=
EXTT1=
EXTT2=
EXTT3=
EXTT4=
EXTT5=
EXTT6=
EXTT7=
EXTT8=
EXTT9=
PLAYORDER=
